<svg  xmlns="http://www.w3.org/2000/svg" viewBox="0 0 60 60" style="enable-background:new 0 0 60 60" xml:space="preserve"><path  d="M36 17h-2a1 1 0 1 0 0 2h2a1 1 0 1 0 0-2zm-6 0h-7a1 1 0 1 0 0 2h7a1 1 0 1 0 0-2zm-11.71.29c-.18.189-.29.45-.29.71 0 .27.11.52.29.71.19.18.45.29.71.29.26 0 .52-.11.71-.29.18-.19.29-.45.29-.71s-.11-.521-.29-.71c-.37-.37-1.05-.37-1.42 0z"/><circle  cx="16" cy="45" r="2"/><path  d="M15 52h30v2H15z"/><circle  cx="35" cy="45" r="2"/><path  d="M59 20a1 1 0 0 0-1 1v4h-1v-.59A2.413 2.413 0 0 0 54.59 22H49V0H11v22H5.411A2.413 2.413 0 0 0 3 24.41V25H2v-4a1 1 0 1 0-2 0v10a1 1 0 1 0 2 0v-4h1v.59A2.413 2.413 0 0 0 5.411 30H6v4H2v5H1v2h4v-2H4v-3h2v10c0 1.859 1.28 3.411 3 3.858v6.527A3.62 3.62 0 0 0 12.615 60h34.77A3.62 3.62 0 0 0 51 56.385v-6.527c1.721-.447 3-1.999 3-3.858V30h.59A2.413 2.413 0 0 0 57 27.59V27h1v4a1 1 0 1 0 2 0V21a1 1 0 0 0-1-1zM13 2h34v20H13V2zm27 26a1 1 0 0 0-1 1v6h-2v-5a1 1 0 1 0-2 0v5h-2v-4a1 1 0 1 0-2 0v4h-2v-4a1 1 0 1 0-2 0v4h-2v-5a1 1 0 1 0-2 0v5h-2v-6a1 1 0 1 0-2 0v5.829c-1.053-.293-1.939-.965-2.466-1.871-.059-.103-.12-.204-.17-.313-.042-.091-.074-.186-.108-.28a4.02 4.02 0 0 1-.127-.408 4.337 4.337 0 0 1-.116-1.084c.005-.144.023-.284.043-.424.016-.115.027-.23.053-.344.02-.088.053-.169.079-.255.046-.15.088-.301.153-.447.051-.116.115-.223.176-.332.037-.067.069-.138.11-.203.071-.112.152-.214.233-.317.059-.075.118-.15.183-.221.083-.092.169-.18.259-.264a4.24 4.24 0 0 1 .264-.218c.087-.067.171-.139.263-.199.171-.111.351-.208.539-.293.08-.036.164-.063.246-.094a3.892 3.892 0 0 1 .677-.19c.23-.042.466-.072.709-.072h20c.243 0 .479.03.71.072.078.014.155.033.232.052.152.037.3.084.445.138.082.031.166.058.246.094.188.084.368.182.539.293.092.06.176.132.263.199.09.07.18.141.264.218a4.037 4.037 0 0 1 .442.485c.08.103.162.205.233.317.041.065.073.136.11.203.061.109.125.216.176.332.064.146.107.297.153.447.026.085.059.167.079.255.027.113.037.229.053.344.02.14.038.28.043.424.003.107-.002.214-.007.322a4.296 4.296 0 0 1-.109.762c-.035.14-.078.275-.127.408-.035.094-.066.19-.108.28-.049.109-.111.209-.17.313-.527.906-1.414 1.578-2.466 1.871V29c-.001-.553-.449-1-1.001-1zm-1 17c0 2.206-1.794 4-4 4s-4-1.794-4-4 1.794-4 4-4 4 1.794 4 4zm-10 0c0 2.206-1.794 4-4 4s-4-1.794-4-4 1.794-4 4-4 4 1.794 4 4zm-17 0c0-2.206 1.794-4 4-4s4 1.794 4 4-1.794 4-4 4-4-1.794-4-4zm35 9.212A1.79 1.79 0 0 1 45.212 56H14.788A1.79 1.79 0 0 1 13 54.212v-2.424A1.79 1.79 0 0 1 14.788 50h30.424A1.79 1.79 0 0 1 47 51.788v2.424zM44 49c-2.206 0-4-1.794-4-4s1.794-4 4-4 4 1.794 4 4-1.794 4-4 4z"/><circle  cx="25" cy="45" r="2"/><circle  cx="44" cy="45" r="2"/></svg>